<?xml version="1.0" encoding="utf-8"?>
<?xml-stylesheet type="text/xsl" href="rss1.xsl"?>
<rss version="2.0" xmlns:atom="http://www.w3.org/2005/Atom" xmlns:content="http://purl.org/rss/1.0/modules/content/" xmlns:dc="http://purl.org/dc/elements/1.1/" xmlns:media="http://search.yahoo.com/mrss/">
<channel>
 <title>Getty</title>
 <link>http://www.gettyimg.com/</link>
 <atom:link href="http://www.gettyimg.com/" rel="self" type="application/rss+xml" />

 
                <item>
                <title><![CDATA[【Albums (lossless)】FLAC - Radiohead - Hail To The Thief [Qobuz CD 16bit/44.1kHz]]]></title>
                <link><![CDATA[https://sharemania.us/threads/radiohead-hail-to-the-thief-qobuz-cd-16bit-44-1khz.233314/]]></link>
                <description><![CDATA[<article>
<blockquote class="messageText SelectQuoteContainer ugc baseHtml">
<img src="https://static.qobuz.com/images/covers/60/85/0634904078560_600.jpg" class="bbCodeImage LbImage" alt="[​IMG]" data-url="https://static.qobuz.com/images/covers/60/85/0634904078560_600.jpg" style=""><br>
<span style="font-size: 18px"><b>ABOUT THE ALBUM</b></span><br>
<ul>
<li>1 disc(s) - 14 track(s)</li>
<li>Total length: 00:56:36</li>
</ul><ul>
<li>Main artists: <a href="https://www.qobuz.com/us-en/interpreter/radiohead/43840" target="_blank" class="externalLink" rel="nofollow">Radiohead</a></li>
<li>Composer: <a href="https://www.qobuz.com/us-en/composer/various-composers/573076" target="_blank" class="externalLink" rel="nofollow">Various Composers</a></li>
<li>Label: <a href="https://www.qobuz.com/us-en/label/xl-recordings/download-streaming-albums/9313" target="_blank" class="externalLink" rel="nofollow">XL Recordings</a></li>
<li>Genre: <a href="https://www.qobuz.com/us-en/genre/pop-rock/download-streaming-albums" target="_blank" class="externalLink" rel="nofollow">Pop/Rock</a> <a href="https://www.qobuz.com/us-en/genre/rock/download-streaming-albums" target="_blank" class="externalLink" rel="nofollow">Rock</a> <a href="https://www.qobuz.com/us-en/genre/alternatif-et-inde/download-streaming-albums" target="_blank" class="externalLink" rel="nofollow">Alternative &amp; Indie</a><br>
Available in<br>
16-Bit/44.1 kHz Stereo</li>
</ul>2003 XL Recordings Ltd 2003 XL Recordings Ltd<br>
<b><br>
Track list:</b><br>
<br>
1. 2 + 2 = 5<br>
2. Sit Down. Stand Up<br>
3. Sail To The Moon<br>
4. Backdrifts<br>
5. Go To Sleep<br>
6. Where I End and You Begin<br>
7. We Suck Young Blood<br>
8. The Gloaming<br>
9. There, There<br>
10. I Will<br>
11. A Punch Up At a Wedding<br>
12. Myxomatosis<br>
13. Scatterbrain<br>
14. A Wolf At the Door<br>
<br>
<div class="bbCodeBlock bbCodeVfcHH HiddenContent">
<div class="attribution type">Hidden Content:</div>
<blockquote>You must reply before you can see the hidden data contained here.</blockquote>
</div>
<div class="messageTextEndMarker">&nbsp;</div>
</blockquote>
</article>]]></description>
                <author><![CDATA[olobersykes99]]></author>
                </item>

                
                <item>
                <title><![CDATA[【HD Live Performances】HDTV - Pet Shop Boys - Live @ Primavera Sound 2023 Sao Paulo HDTV H264 1080i DD5.1-ilya2129]]></title>
                <link><![CDATA[https://sharemania.us/threads/pet-shop-boys-live-primavera-sound-2023-sao-paulo-hdtv-h264-1080i-dd5-1-ilya2129.233313/]]></link>
                <description><![CDATA[<article>
<blockquote class="messageText SelectQuoteContainer ugc baseHtml">
<div style="text-align: center"><img src="https://i122.fastpic.org/big/2023/1203/d1/eb5c24c3f028c24f6a9c5acd316014d1.png" class="bbCodeImage LbImage" alt="[​IMG]" data-url="https://i122.fastpic.org/big/2023/1203/d1/eb5c24c3f028c24f6a9c5acd316014d1.png" style=""><br>
<br>
<a href="https://postimg.cc/SXxVLvxm" target="_blank" class="externalLink" rel="nofollow"><img src="https://i.postimg.cc/SXxVLvxm/vlcsnap-2023-12-03-14h48m51s752.png" class="bbCodeImage LbImage" alt="[​IMG]" data-url="https://i.postimg.cc/SXxVLvxm/vlcsnap-2023-12-03-14h48m51s752.png"></a> <a href="https://postimg.cc/34yBV0G6" target="_blank" class="externalLink" rel="nofollow"><img src="https://i.postimg.cc/34yBV0G6/vlcsnap-2023-12-03-14h48m53s591.png" class="bbCodeImage LbImage" alt="[​IMG]" data-url="https://i.postimg.cc/34yBV0G6/vlcsnap-2023-12-03-14h48m53s591.png"></a> <a href="https://postimg.cc/67bcMf8n" target="_blank" class="externalLink" rel="nofollow"><img src="https://i.postimg.cc/67bcMf8n/vlcsnap-2023-12-03-14h48m55s611.png" class="bbCodeImage LbImage" alt="[​IMG]" data-url="https://i.postimg.cc/67bcMf8n/vlcsnap-2023-12-03-14h48m55s611.png"></a> <a href="https://postimg.cc/cgVmS1MJ" target="_blank" class="externalLink" rel="nofollow"><img src="https://i.postimg.cc/cgVmS1MJ/vlcsnap-2023-12-03-14h48m57s532.png" class="bbCodeImage LbImage" alt="[​IMG]" data-url="https://i.postimg.cc/cgVmS1MJ/vlcsnap-2023-12-03-14h48m57s532.png"></a> <a href="https://postimg.cc/n9B1c80G" target="_blank" class="externalLink" rel="nofollow"><img src="https://i.postimg.cc/n9B1c80G/vlcsnap-2023-12-03-14h48m59s801.png" class="bbCodeImage LbImage" alt="[​IMG]" data-url="https://i.postimg.cc/n9B1c80G/vlcsnap-2023-12-03-14h48m59s801.png"></a> <a href="https://postimg.cc/14qBK6sV" target="_blank" class="externalLink" rel="nofollow"><img src="https://i.postimg.cc/14qBK6sV/vlcsnap-2023-12-03-14h49m02s052.png" class="bbCodeImage LbImage" alt="[​IMG]" data-url="https://i.postimg.cc/14qBK6sV/vlcsnap-2023-12-03-14h49m02s052.png"></a> <br>
<br>
Suburbia<br>
Can You Forgive Her?<br>
Opportunities (Let's Make Lots of Money)<br>
Where the Streets Have No Name (I Can't Take My Eyes Off You)<br>
Rent<br>
I Don't Know What You Want but I Can't Give It Any More<br>
So Hard<br>
Left to My Own Devices<br>
Domino Dancing<br>
Love Comes Quickly<br>
Paninaro<br>
You Were Always on My Mind (Gwen McCrae cover)<br>
Dreamland<br>
Heart<br>
It's Alright (Sterling Void cover)<br>
Vocal<br>
Go West (Village People cover)<br>
It's a Sin<br>
<br>
Encore:<br>
West End Girls<br>
Being Boring<br>
​</div><br>
<div class="bbCodeBlock bbCodeCode">
<div class="type">Code:</div>
<pre>General
ID                                       : 1 (0x1)
Complete name                            : D:\Pet Shop Boys - Live @ Primavera Sound 2023 Sao Paulo HDTV H264 1080i DD5.1-ilya2129.ts
Format                                   : MPEG-TS
File size                                : 7.95 GiB
Duration                                 : 1 h 27 min
Overall bit rate mode                    : Variable
Overall bit rate                         : 13.0 Mb/s
Frame rate                               : 29.970 FPS

Video
ID                                       : 302 (0x12E)
Menu ID                                  : 1 (0x1)
Format                                   : AVC
Format/Info                              : Advanced Video Codec
Format profile                           : High@L4
Format settings                          : CABAC / 4 Ref Frames
Format settings, CABAC                   : Yes
Format settings, Reference frames        : 4 frames
Format settings, GOP                     : M=4, N=32
Codec ID                                 : 27
Duration                                 : 1 h 27 min
Bit rate mode                            : Variable
Bit rate                                 : 11.7 Mb/s
Maximum bit rate                         : 18.1 Mb/s
Width                                    : 1 920 pixels
Height                                   : 1 080 pixels
Display aspect ratio                     : 16:9
Active Format Description                : Full frame 16:9 image
Frame rate                               : 29.970 (30000/1001) FPS
Standard                                 : Component
Color space                              : YUV
Chroma subsampling                       : 4:2:0
Bit depth                                : 8 bits
Scan type                                : MBAFF
Scan type, store method                  : Interleaved fields
Scan order                               : Top Field First
Bits/(Pixel*Frame)                       : 0.189
Stream size                              : 7.20 GiB (91%)
Color range                              : Limited
Color primaries                          : BT.709
Transfer characteristics                 : BT.709
Matrix coefficients                      : BT.709

Audio #1
ID                                       : 303 (0x12F)
Menu ID                                  : 1 (0x1)
Format                                   : AC-3
Format/Info                              : Audio Coding 3
Commercial name                          : Dolby Digital
Codec ID                                 : 129
Duration                                 : 1 h 27 min
Bit rate mode                            : Constant
Bit rate                                 : 384 kb/s
Channel(s)                               : 6 channels
Channel layout                           : L R C LFE Ls Rs
Sampling rate                            : 48.0 kHz
Frame rate                               : 31.250 FPS (1536 SPF)
Compression mode                         : Lossy
Stream size                              : 241 MiB (3%)
Language                                 : Portuguese
Service kind                             : Complete Main

Audio #2
ID                                       : 304 (0x130)
Menu ID                                  : 1 (0x1)
Format                                   : MPEG Audio
Format version                           : Version 1
Format profile                           : Layer 2
Codec ID                                 : 3
Duration                                 : 1 h 27 min
Bit rate mode                            : Constant
Bit rate                                 : 192 kb/s
Channel(s)                               : 2 channels
Sampling rate                            : 48.0 kHz
Frame rate                               : 41.667 FPS (1152 SPF)
Compression mode                         : Lossy
Stream size                              : 121 MiB (1%)
Language                                 : English
</pre>
</div><div style="text-align: center">
<div class="bbCodeBlock bbCodeVfcHH HiddenContent">
<div class="attribution type">Hidden Content:</div>
<blockquote>You must reply before you can see the hidden data contained here.</blockquote>
</div></div>
<div class="messageTextEndMarker">&nbsp;</div>
</blockquote>
</article>]]></description>
                <author><![CDATA[ilya2129]]></author>
                </item>

                
                <item>
                <title><![CDATA[【HD Live Performances】HDTV - The Killers - Live @ Primavera Sound 2023 Sao Paulo HDTV H264 1080i DD5.1-ilya2129]]></title>
                <link><![CDATA[https://sharemania.us/threads/the-killers-live-primavera-sound-2023-sao-paulo-hdtv-h264-1080i-dd5-1-ilya2129.233312/]]></link>
                <description><![CDATA[<article>
<blockquote class="messageText SelectQuoteContainer ugc baseHtml">
thanks
<div class="messageTextEndMarker">&nbsp;</div>
</blockquote>
</article>]]></description>
                <author><![CDATA[ilya2129]]></author>
                </item>

                
                <item>
                <title><![CDATA[【Cinema Center】MOVIE - Cow.Belles.2006.1080p.DSNP.WEB-DL.DDP5.1.H.264-Samuel]]></title>
                <link><![CDATA[https://sharemania.us/threads/cow-belles-2006-1080p-dsnp-web-dl-ddp5-1-h-264-samuel.233315/]]></link>
                <description><![CDATA[<article>
<blockquote class="messageText SelectQuoteContainer ugc baseHtml">
<div style="text-align: center"><img src="https://i122.fastpic.org/big/2023/1203/d1/eb5c24c3f028c24f6a9c5acd316014d1.png" class="bbCodeImage LbImage" alt="[​IMG]" data-url="https://i122.fastpic.org/big/2023/1203/d1/eb5c24c3f028c24f6a9c5acd316014d1.png" style=""><br>
<br>
<a href="https://postimg.cc/18wZh4G8" target="_blank" class="externalLink" rel="nofollow"><img src="https://i.postimg.cc/18wZh4G8/vlcsnap-2023-12-03-14h47m59s452.png" class="bbCodeImage LbImage" alt="[​IMG]" data-url="https://i.postimg.cc/18wZh4G8/vlcsnap-2023-12-03-14h47m59s452.png"></a> <a href="https://postimg.cc/rKRBxzYf" target="_blank" class="externalLink" rel="nofollow"><img src="https://i.postimg.cc/rKRBxzYf/vlcsnap-2023-12-03-14h47m59s722.png" class="bbCodeImage LbImage" alt="[​IMG]" data-url="https://i.postimg.cc/rKRBxzYf/vlcsnap-2023-12-03-14h47m59s722.png"></a> <a href="https://postimg.cc/Fk72PKFs" target="_blank" class="externalLink" rel="nofollow"><img src="https://i.postimg.cc/Fk72PKFs/vlcsnap-2023-12-03-14h48m01s820.png" class="bbCodeImage LbImage" alt="[​IMG]" data-url="https://i.postimg.cc/Fk72PKFs/vlcsnap-2023-12-03-14h48m01s820.png"></a> <a href="https://postimg.cc/FdPMgS4B" target="_blank" class="externalLink" rel="nofollow"><img src="https://i.postimg.cc/FdPMgS4B/vlcsnap-2023-12-03-14h48m06s867.png" class="bbCodeImage LbImage" alt="[​IMG]" data-url="https://i.postimg.cc/FdPMgS4B/vlcsnap-2023-12-03-14h48m06s867.png"></a> <a href="https://postimg.cc/3WqMk29y" target="_blank" class="externalLink" rel="nofollow"><img src="https://i.postimg.cc/3WqMk29y/vlcsnap-2023-12-03-14h48m09s197.png" class="bbCodeImage LbImage" alt="[​IMG]" data-url="https://i.postimg.cc/3WqMk29y/vlcsnap-2023-12-03-14h48m09s197.png"></a> <a href="https://postimg.cc/NLFqGd8q" target="_blank" class="externalLink" rel="nofollow"><img src="https://i.postimg.cc/NLFqGd8q/vlcsnap-2023-12-03-14h48m11s779.png" class="bbCodeImage LbImage" alt="[​IMG]" data-url="https://i.postimg.cc/NLFqGd8q/vlcsnap-2023-12-03-14h48m11s779.png"></a> <a href="https://postimg.cc/yJT4x5rB" target="_blank" class="externalLink" rel="nofollow"><img src="https://i.postimg.cc/yJT4x5rB/vlcsnap-2023-12-03-14h48m14s448.png" class="bbCodeImage LbImage" alt="[​IMG]" data-url="https://i.postimg.cc/yJT4x5rB/vlcsnap-2023-12-03-14h48m14s448.png"></a> <a href="https://postimg.cc/Q9xLTbR7" target="_blank" class="externalLink" rel="nofollow"><img src="https://i.postimg.cc/Q9xLTbR7/vlcsnap-2023-12-03-14h48m16s855.png" class="bbCodeImage LbImage" alt="[​IMG]" data-url="https://i.postimg.cc/Q9xLTbR7/vlcsnap-2023-12-03-14h48m16s855.png"></a> <br>
<br>
Mr. Brightside<br>
Spaceman<br>
The Way It Was (extended)<br>
Smile Like You Mean It<br>
Shot at the Night<br>
In the Car Outside<br>
Human (Electro)<br>
Somebody Told Me<br>
boy<br>
For Reasons Unknown<br>
A Dustland Fairytale<br>
Runaways<br>
Read My Mind<br>
Caution (with “Rut” segue)<br>
All These Things That I've Done<br>
<br>
Encore:<br>
The Man<br>
When You Were Young<br>
​</div><br>
<div class="bbCodeBlock bbCodeCode">
<div class="type">Code:</div>
<pre>General
ID                                       : 1 (0x1)
Complete name                            : D:\The Killers - Live @ Primavera Sound 2023 Sao Paulo HDTV H264 1080i DD5.1-ilya2129.ts
Format                                   : MPEG-TS
File size                                : 7.10 GiB
Duration                                 : 1 h 31 min
Overall bit rate mode                    : Variable
Overall bit rate                         : 11.1 Mb/s
Frame rate                               : 29.970 FPS

Video
ID                                       : 302 (0x12E)
Menu ID                                  : 1 (0x1)
Format                                   : AVC
Format/Info                              : Advanced Video Codec
Format profile                           : High@L4
Format settings                          : CABAC / 4 Ref Frames
Format settings, CABAC                   : Yes
Format settings, Reference frames        : 4 frames
Format settings, GOP                     : M=4, N=32
Codec ID                                 : 27
Duration                                 : 1 h 31 min
Bit rate mode                            : Variable
Bit rate                                 : 10.1 Mb/s
Maximum bit rate                         : 18.1 Mb/s
Width                                    : 1 920 pixels
Height                                   : 1 080 pixels
Display aspect ratio                     : 16:9
Active Format Description                : Full frame 16:9 image
Frame rate                               : 29.970 (30000/1001) FPS
Standard                                 : Component
Color space                              : YUV
Chroma subsampling                       : 4:2:0
Bit depth                                : 8 bits
Scan type                                : MBAFF
Scan type, store method                  : Interleaved fields
Scan order                               : Top Field First
Bits/(Pixel*Frame)                       : 0.163
Stream size                              : 6.50 GiB (92%)
Color range                              : Limited
Color primaries                          : BT.709
Transfer characteristics                 : BT.709
Matrix coefficients                      : BT.709

Audio
ID                                       : 303 (0x12F)
Menu ID                                  : 1 (0x1)
Format                                   : AC-3
Format/Info                              : Audio Coding 3
Commercial name                          : Dolby Digital
Codec ID                                 : 129
Duration                                 : 1 h 31 min
Bit rate mode                            : Constant
Bit rate                                 : 384 kb/s
Channel(s)                               : 6 channels
Channel layout                           : L R C LFE Ls Rs
Sampling rate                            : 48.0 kHz
Frame rate                               : 31.250 FPS (1536 SPF)
Compression mode                         : Lossy
Delay relative to video                  : -100 ms
Stream size                              : 252 MiB (3%)
Language                                 : Portuguese
Service kind                             : Complete Main

</pre>
</div><div style="text-align: center">
<div class="bbCodeBlock bbCodeVfcHH HiddenContent">
<div class="attribution type">Hidden Content:</div>
<blockquote>You must reply before you can see the hidden data contained here.</blockquote>
</div></div>
<div class="messageTextEndMarker">&nbsp;</div>
</blockquote>
</article>]]></description>
                <author><![CDATA[Samuel]]></author>
                </item>

                
                <item>
                <title><![CDATA[【Albums (lossless)】FLAC - Radiohead - Amnesiac [Qobuz CD 16bit/44.1kHz]]]></title>
                <link><![CDATA[https://sharemania.us/threads/radiohead-amnesiac-qobuz-cd-16bit-44-1khz.233316/]]></link>
                <description><![CDATA[<article>
<blockquote class="messageText SelectQuoteContainer ugc baseHtml">
Thanks<img src="styles/default/xenforo/smilies/big_smile-48.png" class="mceSmilie" alt=":)" title="Smile    :)">
<div class="messageTextEndMarker">&nbsp;</div>
</blockquote>
</article>]]></description>
                <author><![CDATA[olobersykes99]]></author>
                </item>

                </channel></rss>